<svg xmlns="http://www.w3.org/2000/svg" width="806" height="604" class="frame-black" preserveAspectRatio="xMidYMid"><path d="M803 601.8V3.1H3.1v598.7H803M672.15 356.65q14.7 14.7 14.7 35.45 0 20.75-14.7 35.4-14.65 14.7-35.4 14.7t-35.45-14.7q-14.65-14.65-14.65-35.4t14.65-35.45Q616 342 636.75 342q20.75 0 35.4 14.65m-322.85 37.1q0-20.75 14.65-35.45 14.7-14.65 35.45-14.65 20.75 0 35.4 14.65 14.7 14.7 14.7 35.45 0 20.75-14.7 35.4-14.65 14.7-35.4 14.7t-35.45-14.7q-14.65-14.65-14.65-35.4m-225.15-2.25q0-20.75 14.65-35.45 14.7-14.65 35.45-14.65 20.75 0 35.4 14.65 14.7 14.7 14.7 35.45 0 20.75-14.7 35.4-14.65 14.7-35.4 14.7t-35.45-14.7q-14.65-14.65-14.65-35.4m13.65-161.4q-1.05.85-1.05 2.1 0 1.75 1.5 4.8l9.9 20.55 9.1-22.5q.75-1.8.75-3.6 0-.8-.3-1.2-.35-.5-1.1-.75-.75-.3-2.65-.3v-1.65h13.2v1.65q-1.65.15-2.5.7-.9.55-1.95 2-.4.65-1.55 3.4l-16.55 40.65q-2.4 5.9-6.25 8.9-3.95 3.05-7.55 3.05-2.6 0-4.3-1.5-1.7-1.55-1.7-3.5 0-1.85 1.25-2.95 1.2-1.15 3.35-1.15 1.45 0 4 .95 1.75.65 2.2.65 1.35 0 2.95-1.35 1.55-1.4 3.15-5.35l2.9-7.05-14.6-30.7q-.7-1.4-2.15-3.4-1.1-1.6-1.85-2.1-1-.7-3.25-1.25v-1.65h18.95v1.65h-.95q-2 0-2.95.9m67.5 3.25q4.75 6 4.75 13.8 0 5.45-2.65 11.05-2.6 5.6-7.15 8.45-4.65 2.85-10.3 2.85-9.2 0-14.6-7.35-4.6-6.15-4.6-13.85 0-5.6 2.8-11.1 2.75-5.55 7.3-8.2 4.55-2.65 9.6-2.65 9.25 0 14.85 7m39.1 1.85q0-3.45-1.25-4.65-1.3-1.25-5.3-1.35v-1.65h13.85v24.65q0 7.05.4 8.65.3 1.6 1.05 2.2.7.6 1.7.6 1.35 0 3.1-.75l.6 1.55-12.15 5.05h-2v-8.65q-5.25 5.7-8 7.2-2.75 1.45-5.85 1.45-3.4 0-5.9-1.95-2.5-2-3.5-5.1-.95-3.15-.95-8.8v-18.2q0-2.9-.65-4-.6-1.1-1.8-1.7-1.25-.6-4.45-.55v-1.65h14.25v27.25q0 5.65 2 7.45 1.95 1.8 4.75 1.8 1.9 0 4.35-1.2 2.4-1.2 5.75-4.6V235.2m50.95-4.65q-1.7 1.55-1.7 3.5l.1 2.55q0 2.05-1 3.15-1.1 1.15-2.75 1.15t-2.7-1.2q-1.05-1.15-1.05-3.15 0-3.8 3.9-7t11-3.2q5.4 0 8.85 1.8 2.65 1.4 3.9 4.35.8 1.9.8 7.8v13.8q0 5.85.2 7.15.25 1.3.75 1.75.5.45 1.15.45.75 0 1.25-.3.95-.6 3.6-3.25v2.5q-4.95 6.65-9.5 6.65-2.15 0-3.45-1.5-1.3-1.5-1.35-5.15-6.25 4.85-7.85 5.6-2.4 1.1-5.1 1.1-4.25 0-6.95-2.9-2.75-2.9-2.75-7.6 0-2.95 1.35-5.15 1.8-3 6.35-5.7 4.45-2.65 14.95-6.45v-1.6q0-6.1-1.9-8.35-1.95-2.3-5.65-2.3-2.8 0-4.45 1.5m39.4-4.2h1.85v9.15q5.1-9.15 10.5-9.15 2.45 0 4.05 1.5 1.6 1.5 1.6 3.45 0 1.7-1.15 2.9-1.2 1.2-2.8 1.2-1.55 0-3.45-1.5-1.95-1.55-2.9-1.55-.8 0-1.7.9-2 1.8-4.15 6v19.5q0 3.35.85 5.1.55 1.2 2.05 2 1.45.8 4.2.8v1.6h-20.85v-1.6q3.15 0 4.65-1 1.1-.7 1.55-2.25.2-.75.2-4.3v-15.8q0-7.1-.25-8.4-.3-1.4-1.05-2-.8-.65-1.95-.65-1.4 0-3.15.7l-.4-1.6 12.3-5m50.8 4.5q4.4 4.45 4.4 12.05h-28.1q-.05 9.05 4.4 14.2 4.45 5.15 10.45 5.15 4 0 6.95-2.2t4.95-7.55l1.35.9q-.9 6.1-5.4 11.1t-11.25 5q-7.35 0-12.55-5.7-5.2-5.75-5.2-15.35 0-10.45 5.35-16.3 5.35-5.85 13.4-5.85 6.85 0 11.25 4.55m62.2 1.65q.8 1.9.8 7.8v13.8q0 5.85.2 7.15.25 1.3.75 1.75.5.45 1.15.45.75 0 1.25-.3.95-.6 3.6-3.25v2.5q-4.95 6.65-9.5 6.65-2.15 0-3.45-1.5-1.3-1.5-1.35-5.15-6.25 4.85-7.85 5.6-2.4 1.1-5.1 1.1-4.25 0-6.95-2.9-2.75-2.9-2.75-7.6 0-2.95 1.35-5.15 1.8-3 6.35-5.7 4.45-2.65 14.95-6.45v-1.6q0-6.1-1.9-8.35-1.95-2.3-5.65-2.3-2.8 0-4.45 1.5-1.7 1.55-1.7 3.5l.1 2.55q0 2.05-1 3.15-1.1 1.15-2.75 1.15t-2.7-1.2q-1.05-1.15-1.05-3.15 0-3.8 3.9-7t11-3.2q5.4 0 8.85 1.8 2.65 1.4 3.9 4.35m15.35 11.45q0-7.35-.35-8.95-.35-1.6-1-2.15-.7-.6-1.85-.6-1.25 0-3 .7l-.65-1.6 12.25-5h1.9v8.6q7.15-8.6 13.65-8.6 3.35 0 5.75 1.7 2.4 1.65 3.8 5.45 1 2.65 1 8.2v17.35q0 3.85.6 5.25.5 1.1 1.6 1.75 1.05.6 4 .6v1.6h-20.15v-1.6h.85q2.85 0 4-.85 1.15-.9 1.55-2.55.2-.7.2-4.2V242.4q0-5.55-1.4-8.05-1.5-2.55-4.9-2.55-5.3 0-10.55 5.8v21.45q0 4.15.5 5.1.6 1.3 1.75 1.9 1.05.6 4.4.6v1.6H456.9v-1.6h.9q3.1 0 4.2-1.55 1.1-1.6 1.1-6.05v-15.1m74.05-38.9q1.85 0 3.2 1.35 1.3 1.3 1.3 3.15 0 1.85-1.3 3.2-1.35 1.35-3.2 1.35t-3.2-1.35q-1.35-1.35-1.35-3.2t1.35-3.15q1.3-1.35 3.2-1.35m1.75 21.3h1.95v32.7q0 3.8.55 5.1.55 1.25 1.65 1.9 1.05.6 3.95.6v1.6h-19.75v-1.6q2.95 0 4-.6 1-.55 1.65-1.9.55-1.3.55-5.1v-15.7q0-6.6-.4-8.55-.3-1.45-.95-1.95-.7-.6-1.85-.6-1.25 0-3 .7l-.65-1.6 12.3-5m41.95-4.15q0-6.95-.3-8.55-.35-1.6-1.1-2.2-.7-.55-1.75-.55-1.15 0-3.1.7l-.55-1.55 12.1-5h2v47.05q0 7.15.4 8.75.3 1.6 1.05 2.2.7.6 1.7.6 1.2 0 3.2-.75l.45 1.55-12.05 5.05h-2.05v-5.85q-3 3.15-5.85 4.5-2.8 1.35-6.1 1.35-6.7 0-11.65-5.55-5-5.6-5-14.35t5.55-16q5.5-7.3 14.15-7.3 5.4 0 8.9 3.45v-7.55m28.85 4.15h1.95v32.7q0 3.8.55 5.1.55 1.25 1.65 1.9 1.05.6 3.95.6v1.6h-19.75v-1.6q2.95 0 4-.6 1-.55 1.65-1.9.55-1.3.55-5.1v-15.7q0-6.6-.4-8.55-.3-1.45-.95-1.95-.7-.6-1.85-.6-1.25 0-3 .7l-.65-1.6 12.3-5m1.45-13.6q-1.35 1.35-3.2 1.35t-3.2-1.35q-1.35-1.35-1.35-3.2t1.35-3.15q1.3-1.35 3.2-1.35 1.85 0 3.2 1.35 1.3 1.3 1.3 3.15 0 1.85-1.3 3.2m78.55 14.8v3.1h-9.5v26.4q0 3.95 1.15 5.35 1.15 1.35 2.9 1.35 1.45 0 2.85-.9 1.4-.9 2.15-2.7h1.7q-1.55 4.35-4.4 6.6-2.85 2.15-5.85 2.15-2.05 0-4-1.1-1.95-1.15-2.9-3.25-.9-2.1-.9-6.5v-27.4h-6.45v-1.45q2.45-1 5-3.3 2.55-2.35 4.55-5.55 1-1.7 2.85-6.2h1.35v13.4h9.5m-32.05 5.8q4.75 6 4.75 13.8 0 5.45-2.65 11.05-2.6 5.6-7.15 8.45-4.65 2.85-10.3 2.85-9.2 0-14.6-7.35-4.6-6.15-4.6-13.85 0-5.6 2.8-11.1 2.75-5.55 7.3-8.2 4.55-2.65 9.6-2.65 9.25 0 14.85 7m34.55 28.05v-.45q0-.4.2-.6.2-.25.45-.25.3 0 .45.25.2.2.2.65v.4l-.55 4.75h-.2l-.55-4.75m.65 5.7q.25 0 .45.2t.2.45q0 .3-.2.5-.2.15-.45.15-.3 0-.45-.15-.2-.2-.2-.5 0-.25.2-.45.15-.2.45-.2m-41.5-4.3q2.8-3.55 2.8-12.25 0-10.85-4.7-17.05-3.15-4.25-8.05-4.25-2.35 0-4.7 1.4-2.4 1.4-3.85 4.9-1.45 3.5-1.45 9 0 8.9 3.55 15.35 3.5 6.45 9.25 6.45 4.35 0 7.15-3.55m-70.5-23.2q-.25-3.05-1.6-5.5-1.35-2.5-3.5-3.75-2.25-1.3-4.35-1.3-3.9 0-6.95 3.5-4.05 4.65-4.05 13.55 0 8.95 3.9 13.75 3.9 4.75 8.7 4.75 4.05 0 7.85-4.05V239.6M432.3 263.95q3.4 0 8.9-4.45V244q-6.7 2.65-8.65 3.75-3.5 1.95-5.05 4.1-1.5 2.15-1.5 4.65 0 3.2 1.9 5.35 1.95 2.1 4.4 2.1m-60.45-34.5q-3.7 0-6.6 2.9-2.9 2.85-3.4 7.95h18.85q-.25-3.9-.95-5.5-1.1-2.5-3.3-3.9-2.2-1.45-4.6-1.45m-73.15 18.3q-3.5 1.95-5.05 4.1-1.5 2.15-1.5 4.65 0 3.2 1.9 5.35 1.95 2.1 4.4 2.1 3.4 0 8.9-4.45V244q-6.7 2.65-8.65 3.75m-118.2-12.2q-1.45 3.5-1.45 9 0 8.9 3.55 15.35 3.5 6.45 9.25 6.45 4.35 0 7.15-3.55 2.8-3.55 2.8-12.25 0-10.85-4.7-17.05-3.15-4.25-8.05-4.25-2.35 0-4.7 1.4-2.4 1.4-3.85 4.9m-41.7 120.5q-14.65 14.7-14.65 35.45 0 20.75 14.65 35.4 14.7 14.7 35.45 14.7 20.75 0 35.4-14.7 14.7-14.65 14.7-35.4t-14.7-35.45Q195 341.4 174.25 341.4t-35.45 14.65m13.9 11.5q2.85-2.8 6.85-2.8 4 0 6.8 2.8 2.85 2.85 2.85 6.85 0 4-2.85 6.8-2.8 2.85-6.8 2.85t-6.85-2.85q-2.8-2.8-2.8-6.8t2.8-6.85m34.25-2q4 0 6.8 2.8 2.85 2.85 2.85 6.85 0 4-2.85 6.8-2.8 2.85-6.8 2.85T180.1 382q-2.8-2.8-2.8-6.8t2.8-6.85q2.85-2.8 6.85-2.8m13.9 46.2Q189.9 422.7 174.4 422.7t-26.45-10.95q-4-4-6.5-8.55 2.5 4.55 6.5 8.55 10.95 10.95 26.45 10.95t26.45-10.95q3.55-3.55 5.95-7.5-2.4 3.95-5.95 7.5m-7.1-43.4q-2.8-2.8-6.8-2.8t-6.85 2.8q-2.8 2.85-2.8 6.85 0 4 2.8 6.8 2.85 2.85 6.85 2.85 4 0 6.8-2.85 2.85-2.8 2.85-6.8t-2.85-6.85m-34.2-3.6q-4 0-6.85 2.8-2.8 2.85-2.8 6.85 0 4 2.8 6.8 2.85 2.85 6.85 2.85 4 0 6.8-2.85 2.85-2.8 2.85-6.8t-2.85-6.85q-2.8-2.8-6.8-2.8m204.4-6.45Q349.3 373 349.3 393.75q0 20.75 14.65 35.4 14.7 14.7 35.45 14.7 20.75 0 35.4-14.7 14.7-14.65 14.7-35.4t-14.7-35.45q-14.65-14.65-35.4-14.65t-35.45 14.65m11.1 18.35q0-4 2.8-6.85 2.85-2.8 6.85-2.8 4 0 6.8 2.8 2.85 2.85 2.85 6.85 0 4-2.85 6.8-2.8 2.85-6.8 2.85t-6.85-2.85q-2.8-2.8-2.8-6.8m37.05 10.45q-4 0-6.85-2.85-2.8-2.8-2.8-6.8t2.8-6.85q2.85-2.8 6.85-2.8 4 0 6.8 2.8 2.85 2.85 2.85 6.85 0 4-2.85 6.8-2.8 2.85-6.8 2.85m19.85 19.4q-2.4 3.95-5.95 7.5-10.95 10.95-26.45 10.95T373.1 414q-4-4-6.5-8.55 2.5 4.55 6.5 8.55 10.95 10.95 26.45 10.95T426 414q3.55-3.55 5.95-7.5m-26.7-22.25q2.85 2.85 6.85 2.85 4 0 6.8-2.85 2.85-2.8 2.85-6.8t-2.85-6.85q-2.8-2.8-6.8-2.8t-6.85 2.8q-2.8 2.85-2.8 6.85 0 4 2.8 6.8m-27.4-14.45q-2.8 2.85-2.8 6.85 0 4 2.8 6.8 2.85 2.85 6.85 2.85 4 0 6.8-2.85 2.85-2.8 2.85-6.8t-2.85-6.85q-2.8-2.8-6.8-2.8t-6.85 2.8m309 22.3q0-20.75-14.7-35.45Q657.5 342 636.75 342t-35.45 14.65q-14.65 14.7-14.65 35.45 0 20.75 14.65 35.4 14.7 14.7 35.45 14.7 20.75 0 35.4-14.7 14.7-14.65 14.7-35.4m-37.4-25.95q4 0 6.8 2.8 2.85 2.85 2.85 6.85 0 4-2.85 6.8-2.8 2.85-6.8 2.85t-6.85-2.85q-2.8-2.8-2.8-6.8t2.8-6.85q2.85-2.8 6.85-2.8m19.85 38.7q-2.4 3.95-5.95 7.5-10.95 10.95-26.45 10.95t-26.45-10.95q-4-4-6.5-8.55 2.5 4.55 6.5 8.55 10.95 10.95 26.45 10.95t26.45-10.95q3.55-3.55 5.95-7.5m-54.1-36.7q2.85-2.8 6.85-2.8 4 0 6.8 2.8 2.85 2.85 2.85 6.85 0 4-2.85 6.8-2.8 2.85-6.8 2.85t-6.85-2.85q-2.8-2.8-2.8-6.8t2.8-6.85m6.85-2.8q-4 0-6.85 2.8-2.8 2.85-2.8 6.85 0 4 2.8 6.8 2.85 2.85 6.85 2.85 4 0 6.8-2.85 2.85-2.8 2.85-6.8t-2.85-6.85q-2.8-2.8-6.8-2.8m34.2 3.6q-2.8-2.8-6.8-2.8t-6.85 2.8q-2.8 2.85-2.8 6.85 0 4 2.8 6.8 2.85 2.85 6.85 2.85 4 0 6.8-2.85 2.85-2.8 2.85-6.8t-2.85-6.85Z"/><path fill="#FFF" d="M693.3 267.3q-.2-.2-.45-.2-.3 0-.45.2-.2.2-.2.45 0 .3.2.5.15.15.45.15.25 0 .45-.15.2-.2.2-.5 0-.25-.2-.45m-1.1-6.35v.45l.55 4.75h.2l.55-4.75v-.4q0-.45-.2-.65-.15-.25-.45-.25-.25 0-.45.25-.2.2-.2.6m-29.8-13.8q0-7.8-4.75-13.8-5.6-7-14.85-7-5.05 0-9.6 2.65t-7.3 8.2q-2.8 5.5-2.8 11.1 0 7.7 4.6 13.85 5.4 7.35 14.6 7.35 5.65 0 10.3-2.85 4.55-2.85 7.15-8.45 2.65-5.6 2.65-11.05m-8.25 3.4q0 8.7-2.8 12.25-2.8 3.55-7.15 3.55-5.75 0-9.25-6.45-3.55-6.45-3.55-15.35 0-5.5 1.45-9t3.85-4.9q2.35-1.4 4.7-1.4 4.9 0 8.05 4.25 4.7 6.2 4.7 17.05m35.55-19.9v-3.1h-9.5v-13.4h-1.35q-1.85 4.5-2.85 6.2-2 3.2-4.55 5.55-2.55 2.3-5 3.3v1.45h6.45v27.4q0 4.4.9 6.5.95 2.1 2.9 3.25 1.95 1.1 4 1.1 3 0 5.85-2.15 2.85-2.25 4.4-6.6h-1.7q-.75 1.8-2.15 2.7-1.4.9-2.85.9-1.75 0-2.9-1.35-1.15-1.4-1.15-5.35v-26.4h9.5m-81.75-16.55q1.85 0 3.2-1.35 1.3-1.35 1.3-3.2t-1.3-3.15q-1.35-1.35-3.2-1.35-1.9 0-3.2 1.35-1.35 1.3-1.35 3.15 0 1.85 1.35 3.2t3.2 1.35m3.7 12.25h-1.95l-12.3 5 .65 1.6q1.75-.7 3-.7 1.15 0 1.85.6.65.5.95 1.95.4 1.95.4 8.55v15.7q0 3.8-.55 5.1-.65 1.35-1.65 1.9-1.05.6-4 .6v1.6h19.75v-1.6q-2.9 0-3.95-.6-1.1-.65-1.65-1.9-.55-1.3-.55-5.1v-32.7m-31.1-12.7q.3 1.6.3 8.55v7.55q-3.5-3.45-8.9-3.45-8.65 0-14.15 7.3-5.55 7.25-5.55 16t5 14.35q4.95 5.55 11.65 5.55 3.3 0 6.1-1.35 2.85-1.35 5.85-4.5v5.85h2.05l12.05-5.05-.45-1.55q-2 .75-3.2.75-1 0-1.7-.6-.75-.6-1.05-2.2-.4-1.6-.4-8.75v-47.05h-2l-12.1 5 .55 1.55q1.95-.7 3.1-.7 1.05 0 1.75.55.75.6 1.1 2.2m-1.3 20.45q1.35 2.45 1.6 5.5v20.95q-3.8 4.05-7.85 4.05-4.8 0-8.7-4.75-3.9-4.8-3.9-13.75 0-8.9 4.05-13.55 3.05-3.5 6.95-3.5 2.1 0 4.35 1.3 2.15 1.25 3.5 3.75m-38.4-7.75h-1.95l-12.3 5 .65 1.6q1.75-.7 3-.7 1.15 0 1.85.6.65.5.95 1.95.4 1.95.4 8.55v15.7q0 3.8-.55 5.1-.65 1.35-1.65 1.9-1.05.6-4 .6v1.6H547v-1.6q-2.9 0-3.95-.6-1.1-.65-1.65-1.9-.55-1.3-.55-5.1v-32.7m-.5-19.95q-1.35-1.35-3.2-1.35-1.9 0-3.2 1.35-1.35 1.3-1.35 3.15 0 1.85 1.35 3.2t3.2 1.35q1.85 0 3.2-1.35 1.3-1.35 1.3-3.2t-1.3-3.15m-77.6 28.6q.35 1.6.35 8.95v15.1q0 4.45-1.1 6.05-1.1 1.55-4.2 1.55h-.9v1.6h20.15v-1.6q-3.35 0-4.4-.6-1.15-.6-1.75-1.9-.5-.95-.5-5.1V237.6q5.25-5.8 10.55-5.8 3.4 0 4.9 2.55 1.4 2.5 1.4 8.05v16.65q0 3.5-.2 4.2-.4 1.65-1.55 2.55-1.15.85-4 .85h-.85v1.6h20.15v-1.6q-2.95 0-4-.6-1.1-.65-1.6-1.75-.6-1.4-.6-5.25V241.7q0-5.55-1-8.2-1.4-3.8-3.8-5.45-2.4-1.7-5.75-1.7-6.5 0-13.65 8.6v-8.6h-1.9l-12.25 5 .65 1.6q1.75-.7 3-.7 1.15 0 1.85.6.65.55 1 2.15m-14.2 5.3q0-5.9-.8-7.8-1.25-2.95-3.9-4.35-3.45-1.8-8.85-1.8-7.1 0-11 3.2-3.9 3.2-3.9 7 0 2 1.05 3.15 1.05 1.2 2.7 1.2 1.65 0 2.75-1.15 1-1.1 1-3.15l-.1-2.55q0-1.95 1.7-3.5 1.65-1.5 4.45-1.5 3.7 0 5.65 2.3 1.9 2.25 1.9 8.35v1.6q-10.5 3.8-14.95 6.45-4.55 2.7-6.35 5.7-1.35 2.2-1.35 5.15 0 4.7 2.75 7.6 2.7 2.9 6.95 2.9 2.7 0 5.1-1.1 1.6-.75 7.85-5.6.05 3.65 1.35 5.15 1.3 1.5 3.45 1.5 4.55 0 9.5-6.65v-2.5q-2.65 2.65-3.6 3.25-.5.3-1.25.3-.65 0-1.15-.45-.5-.45-.75-1.75-.2-1.3-.2-7.15v-13.8m-7.35 19.2q-5.5 4.45-8.9 4.45-2.45 0-4.4-2.1-1.9-2.15-1.9-5.35 0-2.5 1.5-4.65 1.55-2.15 5.05-4.1 1.95-1.1 8.65-3.75v15.5m-51.25-16.6q0-7.6-4.4-12.05-4.4-4.55-11.25-4.55-8.05 0-13.4 5.85t-5.35 16.3q0 9.6 5.2 15.35 5.2 5.7 12.55 5.7 6.75 0 11.25-5t5.4-11.1l-1.35-.9q-2 5.35-4.95 7.55t-6.95 2.2q-6 0-10.45-5.15-4.45-5.15-4.4-14.2h28.1m-24.7-10.55q2.9-2.9 6.6-2.9 2.4 0 4.6 1.45 2.2 1.4 3.3 3.9.7 1.6.95 5.5h-18.85q.5-5.1 3.4-7.95m-28.65-6h-1.85l-12.3 5 .4 1.6q1.75-.7 3.15-.7 1.15 0 1.95.65.75.6 1.05 2 .25 1.3.25 8.4v15.8q0 3.55-.2 4.3-.45 1.55-1.55 2.25-1.5 1-4.65 1v1.6h20.85v-1.6q-2.75 0-4.2-.8-1.5-.8-2.05-2-.85-1.75-.85-5.1v-19.5q2.15-4.2 4.15-6 .9-.9 1.7-.9.95 0 2.9 1.55 1.9 1.5 3.45 1.5 1.6 0 2.8-1.2 1.15-1.2 1.15-2.9 0-1.95-1.6-3.45-1.6-1.5-4.05-1.5-5.4 0-10.5 9.15v-9.15m-42.95 7.7q0-1.95 1.7-3.5 1.65-1.5 4.45-1.5 3.7 0 5.65 2.3 1.9 2.25 1.9 8.35v1.6q-10.5 3.8-14.95 6.45-4.55 2.7-6.35 5.7-1.35 2.2-1.35 5.15 0 4.7 2.75 7.6 2.7 2.9 6.95 2.9 2.7 0 5.1-1.1 1.6-.75 7.85-5.6.05 3.65 1.35 5.15 1.3 1.5 3.45 1.5 4.55 0 9.5-6.65v-2.5q-2.65 2.65-3.6 3.25-.5.3-1.25.3-.65 0-1.15-.45-.5-.45-.75-1.75-.2-1.3-.2-7.15v-13.8q0-5.9-.8-7.8-1.25-2.95-3.9-4.35-3.45-1.8-8.85-1.8-7.1 0-11 3.2-3.9 3.2-3.9 7 0 2 1.05 3.15 1.05 1.2 2.7 1.2 1.65 0 2.75-1.15 1-1.1 1-3.15l-.1-2.55m0 17.8q1.55-2.15 5.05-4.1 1.95-1.1 8.65-3.75v15.5q-5.5 4.45-8.9 4.45-2.45 0-4.4-2.1-1.9-2.15-1.9-5.35 0-2.5 1.5-4.65m-50.5-21.3q1.25 1.2 1.25 4.65v23.05q-3.35 3.4-5.75 4.6-2.45 1.2-4.35 1.2-2.8 0-4.75-1.8-2-1.8-2-7.45v-27.25H213.3v1.65q3.2-.05 4.45.55 1.2.6 1.8 1.7.65 1.1.65 4v18.2q0 5.65.95 8.8 1 3.1 3.5 5.1 2.5 1.95 5.9 1.95 3.1 0 5.85-1.45 2.75-1.5 8-7.2v8.65h2l12.15-5.05-.6-1.55q-1.75.75-3.1.75-1 0-1.7-.6-.75-.6-1.05-2.2-.4-1.6-.4-8.65v-24.65h-13.85v1.65q4 .1 5.3 1.35m-33.1 16.6q0-7.8-4.75-13.8-5.6-7-14.85-7-5.05 0-9.6 2.65t-7.3 8.2q-2.8 5.5-2.8 11.1 0 7.7 4.6 13.85 5.4 7.35 14.6 7.35 5.65 0 10.3-2.85 4.55-2.85 7.15-8.45 2.65-5.6 2.65-11.05m-31-2.6q0-5.5 1.45-9t3.85-4.9q2.35-1.4 4.7-1.4 4.9 0 8.05 4.25 4.7 6.2 4.7 17.05 0 8.7-2.8 12.25-2.8 3.55-7.15 3.55-5.75 0-9.25-6.45-3.55-6.45-3.55-15.35m-42.3-12.35q0-1.25 1.05-2.1.95-.9 2.95-.9h.95v-1.65h-18.95v1.65q2.25.55 3.25 1.25.75.5 1.85 2.1 1.45 2 2.15 3.4l14.6 30.7-2.9 7.05q-1.6 3.95-3.15 5.35-1.6 1.35-2.95 1.35-.45 0-2.2-.65-2.55-.95-4-.95-2.15 0-3.35 1.15-1.25 1.1-1.25 2.95 0 1.95 1.7 3.5 1.7 1.5 4.3 1.5 3.6 0 7.55-3.05 3.85-3 6.25-8.9l16.55-40.65q1.15-2.75 1.55-3.4 1.05-1.45 1.95-2 .85-.55 2.5-.7v-1.65h-13.2v1.65q1.9 0 2.65.3.75.25 1.1.75.3.4.3 1.2 0 1.8-.75 3.6l-9.1 22.5-9.9-20.55q-1.5-3.05-1.5-4.8Z"/><path fill="none" stroke="#FFF" stroke-linecap="round" stroke-linejoin="round" stroke-width="6.25" d="M656.25 382.6q-2.8 2.85-6.8 2.85t-6.85-2.85q-2.8-2.8-2.8-6.8t2.8-6.85q2.85-2.8 6.85-2.8 4 0 6.8 2.8 2.85 2.85 2.85 6.85 0 4-2.85 6.8Zm30.6 9.5q0 20.75-14.7 35.4-14.65 14.7-35.4 14.7t-35.45-14.7q-14.65-14.65-14.65-35.4t14.65-35.45Q616 342 636.75 342q20.75 0 35.4 14.65 14.7 14.7 14.7 35.45Zm-17.55 12.75q-2.4 3.95-5.95 7.5-10.95 10.95-26.45 10.95t-26.45-10.95q-4-4-6.5-8.55M803 601.8H3.1V3.1H803v598.7ZM363.95 358.3q14.7-14.65 35.45-14.65 20.75 0 35.4 14.65 14.7 14.7 14.7 35.45 0 20.75-14.7 35.4-14.65 14.7-35.4 14.7t-35.45-14.7q-14.65-14.65-14.65-35.4t14.65-35.45Zm20.75 8.7q4 0 6.8 2.8 2.85 2.85 2.85 6.85 0 4-2.85 6.8-2.8 2.85-6.8 2.85t-6.85-2.85q-2.8-2.8-2.8-6.8t2.8-6.85q2.85-2.8 6.85-2.8Zm17.75 10.45q0-4 2.8-6.85 2.85-2.8 6.85-2.8 4 0 6.8 2.8 2.85 2.85 2.85 6.85 0 4-2.85 6.8-2.8 2.85-6.8 2.85t-6.85-2.85q-2.8-2.8-2.8-6.8Zm226.4-9.3q2.85 2.85 2.85 6.85 0 4-2.85 6.8-2.8 2.85-6.8 2.85t-6.85-2.85q-2.8-2.8-2.8-6.8t2.8-6.85q2.85-2.8 6.85-2.8 4 0 6.8 2.8Zm-490.05-12.1q14.7-14.65 35.45-14.65 20.75 0 35.4 14.65 14.7 14.7 14.7 35.45 0 20.75-14.7 35.4-14.65 14.7-35.4 14.7t-35.45-14.7q-14.65-14.65-14.65-35.4t14.65-35.45Zm20.75 8.7q4 0 6.8 2.8 2.85 2.85 2.85 6.85 0 4-2.85 6.8-2.8 2.85-6.8 2.85t-6.85-2.85q-2.8-2.8-2.8-6.8t2.8-6.85q2.85-2.8 6.85-2.8Zm34.2 3.6q2.85 2.85 2.85 6.85 0 4-2.85 6.8-2.8 2.85-6.8 2.85T180.1 382q-2.8-2.8-2.8-6.8t2.8-6.85q2.85-2.8 6.85-2.8 4 0 6.8 2.8Zm13.05 35.9q-2.4 3.95-5.95 7.5-10.95 10.95-26.45 10.95t-26.45-10.95q-4-4-6.5-8.55m290.5 3.3q-2.4 3.95-5.95 7.5-10.95 10.95-26.45 10.95T373.1 414q-4-4-6.5-8.55"/></svg>